<svg xmlns="http://www.w3.org/2000/svg" width="500" height="500" viewBox="0 0 500 500"><path d="M487.685 123.026c-.091-.07-.164-.167-.278-.224l-.167-.08-144.215-72.109c-.974-.488-1.997-.816-3.034-1.081-1.302-.334-2.63-.542-3.965-.542-5.524 0-11.019 2.773-13.996 7.608L239.005 191.52l104.194 169.314L488.126 125.33c.478-.785.251-1.755-.441-2.304M193.271 160.787v153.585l136.515 68.258-136.515-221.843zM350.296 392.885l112.372 56.182c14.624 7.314 26.479 2.195 26.479-11.429v-270.38L350.296 392.885M169.573 123.247L28.725 52.821c-2.546-1.271-4.965-1.874-7.16-1.874-6.167 0-10.493 4.775-10.493 12.781v304.1c0 8.14 5.956 17.779 13.239 21.419l124.056 62.024c3.182 1.593 6.21 2.346 8.947 2.346 7.708 0 13.119-5.966 13.119-15.979V124.632c0-.586-.335-1.124-.86-1.385"/></svg>
