<svg xmlns="http://www.w3.org/2000/svg" width="500" height="500" viewBox="0 0 500 500"><path d="M154.763 312.286l97.376 80.866-.222.188-97.155-81.054zm97.268 61.722l-87.937-73.023 87.75 73.19.188-.167zm239.825-190.845v295.225H8.145V183.136L59.86 149.24V68.32h123.453l68.215-44.712 67.342 44.71h121.24v80.49l51.745 34.355zm-51.74 31.94l32.236-27.297-32.236-21.4v48.698zM210.044 68.32h82.328l-40.9-27.153-41.427 27.152zM74.516 226.27l89.578 74.712 87.75 73.19.193-.167 173.427-147.693V82.976H74.515v143.297zm-46.737-38.476l32.08 26.642V166.77l-32.08 21.026zm449.42 15.108L252.333 393.31l-.188-.157-97.382-80.866L22.8 202.705v261.03h454.404v-260.83h-.006zm-228.29 93.415c-37.976 0-70.175-27.804-70.175-72.273 0-47.715 33.113-88.943 84.547-88.943 40.3 0 67.397 28.254 67.397 66.935 0 34.745-19.46 55.136-41.234 55.136-9.27 0-17.838-6.256-17.134-20.39h-.93c-8.105 13.666-18.77 20.39-32.662 20.39-13.43 0-25.014-10.895-25.014-29.194 0-28.716 22.702-54.885 54.9-54.885 9.95 0 18.76 2.085 24.772 4.864l-7.863 41.922c-3.482 17.602-.703 25.717 6.95 25.943 11.81.242 25.014-15.516 25.014-42.39 0-33.58-20.15-57.674-56.058-57.674-37.752 0-69.483 29.89-69.483 76.895 0 38.68 25.24 62.538 59.523 62.538 13.205 0 25.476-2.777 34.973-8.104l3.708 9.963c-12.74 6.714-25.703 9.266-41.23 9.266zM277.4 186.983c-2.312-.688-6.257-1.623-11.584-1.623-20.374 0-36.82 19.22-36.82 41.697 0 10.19 5.084 17.602 15.29 17.602 13.432 0 25.702-17.136 28.254-31.507l4.86-26.17z"/></svg>