<svg xmlns="http://www.w3.org/2000/svg" width="500" height="500" viewBox="0 0 500 500"><g ><path class="icon icon--github" fill-rule="evenodd" clip-rule="evenodd" d="M249.611 10.221C113.849 10.221 3.76 120.286 3.76 256.068c0 108.625 70.442 200.775 168.127 233.289 12.285 2.275 16.797-5.336 16.797-11.832 0-5.859-.227-25.23-.333-45.768-68.396 14.869-82.827-29.008-82.827-29.008-11.184-28.418-27.298-35.973-27.298-35.973-22.308-15.26 1.682-14.949 1.682-14.949 24.685 1.734 37.686 25.342 37.686 25.342 21.926 37.578 57.513 26.717 71.544 20.436 2.207-15.887 8.576-26.74 15.608-32.879-54.607-6.211-112.013-27.299-112.013-121.498 0-26.84 9.605-48.772 25.333-65.99-2.552-6.194-10.969-31.198 2.381-65.063 0 0 20.646-6.604 67.624 25.204 19.612-5.449 40.644-8.18 61.539-8.275 20.889.095 41.936 2.827 61.584 8.275 46.93-31.808 67.54-25.204 67.54-25.204 13.383 33.865 4.97 58.869 2.417 65.063 15.761 17.217 25.303 39.149 25.303 65.99 0 94.43-57.514 115.215-112.26 121.307 8.818 7.625 16.674 22.59 16.674 45.521 0 32.896-.286 59.375-.286 67.469 0 6.545 4.429 14.211 16.889 11.801 97.629-32.545 167.984-124.672 167.984-233.258.001-135.782-110.072-245.847-245.844-245.847z"/><path d="M96.876 363.207c-.541 1.225-2.465 1.59-4.214.748-1.785-.803-2.783-2.465-2.207-3.689.529-1.258 2.453-1.607 4.234-.771 1.786.802 2.803 2.487 2.187 3.712zm-3.025-2.242M106.835 374.314c-1.173 1.082-3.467.582-5.021-1.137-1.61-1.717-1.908-4.008-.72-5.113 1.208-1.08 3.431-.572 5.042 1.139 1.61 1.733 1.924 4.008.699 5.111zm-2.345-2.519M116.528 388.469c-1.507 1.051-3.972.072-5.495-2.115-1.507-2.186-1.507-4.811.036-5.859 1.523-1.051 3.952-.104 5.495 2.059 1.503 2.225 1.503 4.85-.036 5.915zm0 0M129.807 402.154c-1.348 1.486-4.218 1.08-6.317-.947-2.151-1.98-2.747-4.795-1.399-6.281 1.368-1.486 4.254-1.066 6.369.945 2.135 1.981 2.783 4.811 1.347 6.283zm0 0M148.127 410.098c-.596 1.924-3.359 2.799-6.143 1.979-2.783-.842-4.6-3.1-4.039-5.041.576-1.939 3.355-2.854 6.158-1.979 2.78.841 4.601 3.076 4.024 5.041zm0 0M168.249 411.568c.067 2.027-2.294 3.705-5.216 3.744-2.938.064-5.32-1.574-5.352-3.57 0-2.051 2.31-3.713 5.248-3.76 2.923-.056 5.32 1.575 5.32 3.586zm0 0M186.971 408.379c.35 1.98-1.682 4.008-4.584 4.549-2.854.525-5.495-.699-5.86-2.656-.354-2.027 1.714-4.062 4.564-4.588 2.906-.5 5.51.683 5.88 2.695zm0 0"/></g></svg>
