<svg xmlns="http://www.w3.org/2000/svg" width="500" height="500" viewBox="0 0 500 500"><path class="icon icon--linkedin" d="M250 47.146c112.398 0 203.854 91.446 203.854 203.854 0 112.398-91.455 203.854-203.854 203.854-112.408 0-203.854-91.455-203.854-203.854 0-112.408 91.446-203.854 203.854-203.854zm0-40.77C114.907 6.376 5.376 115.907 5.376 251S114.907 495.624 250 495.624 494.624 386.093 494.624 251 385.093 6.376 250 6.376zm-14.413 297.737l-8.988-24.387s-14.572 16.265-36.391 16.265c-19.34 0-33.086-16.821-33.086-43.718 0-34.479 17.37-46.812 34.47-46.812 24.655 0 32.499 15.976 39.228 36.421l8.969 28.03c8.948 27.174 25.781 49.032 74.235 49.032 34.759 0 58.29-10.65 58.29-38.64 0-22.715-12.9-34.48-36.988-40.084l-17.918-3.942c-12.322-2.787-15.965-7.824-15.965-16.245 0-9.516 7.525-15.12 19.887-15.12 13.458 0 20.764 5.027 21.84 17.101l28.029-3.364c-2.25-25.223-19.589-35.595-48.196-35.595-25.183 0-49.868 9.516-49.868 40.054 0 19.062 9.257 31.115 32.529 36.729l19.07 4.46c14.254 3.384 19.032 9.236 19.032 17.379 0 10.371-10.073 14.572-29.145 14.572-28.309 0-40.054-14.831-46.782-35.297l-9.258-28.009c-11.755-36.431-30.558-49.888-67.815-49.888-41.229 0-63.077 26.049-63.077 70.333 0 42.603 21.849 65.556 61.096 65.556 31.653 0 46.802-14.831 46.802-14.831z"/></svg>